<svg id="Layer_1" data-name="Layer 1" xmlns="http://www.w3.org/2000/svg" viewBox="0 0 50.7 48.08"><defs><style>.cls-1{fill:#2f80ea;}</style></defs><title>bigradar</title><path id="_Compound_Path_" data-name="&lt;Compound Path&gt;" class="cls-1" d="M2266.08-349.55c-14,0-25.35,10.18-25.35,22.73a21,21,0,0,0,4.19,12.52c-0.35,4.14-1.35,10-4.19,12.83,0,0,8.69-1.22,14.58-4.78a27.67,27.67,0,0,0,10.77,2.15c14,0,25.35-10.17,25.35-22.72S2280.08-349.55,2266.08-349.55Zm-6.84,33.44a2.57,2.57,0,0,1-2.56-2.56,2.57,2.57,0,0,1,2.56-2.56,2.57,2.57,0,0,1,2.56,2.56A2.57,2.57,0,0,1,2259.24-316.12Zm8.12-1.28a1.28,1.28,0,0,1-1.28-1.28,6.84,6.84,0,0,0-6.84-6.84,1.28,1.28,0,0,1-1.28-1.28,1.28,1.28,0,0,1,1.28-1.28,9.34,9.34,0,0,1,6.65,2.75,9.34,9.34,0,0,1,2.75,6.65A1.28,1.28,0,0,1,2267.36-317.4Zm6.84,0a1.28,1.28,0,0,1-1.28-1.28,13.69,13.69,0,0,0-13.67-13.67,1.28,1.28,0,0,1-1.28-1.28,1.28,1.28,0,0,1,1.28-1.28,16.13,16.13,0,0,1,6.32,1.28,16.18,16.18,0,0,1,5.16,3.48,16.18,16.18,0,0,1,3.48,5.16,16.13,16.13,0,0,1,1.28,6.32A1.28,1.28,0,0,1,2274.2-317.4Z" transform="translate(-2240.73 349.55)"/></svg>